<svg width="46" height="46" viewBox="0 0 46 46" fill="none" xmlns="http://www.w3.org/2000/svg">
<path d="M45.2999 14.05L38.8499 7.55C38.4499 7.15 37.8999 6.95 37.3499 7L28.0999 7.75C20.1999 1.05 10.2499 -1.55 2.04988 1.2L1.39988 1.4L1.19988 2.05C-1.55012 10.25 1.04988 20.2 7.79988 28.1L6.99988 37.35C6.94988 37.9 7.14988 38.45 7.54988 38.85L13.9999 45.3C14.3499 45.65 14.8499 45.85 15.3499 45.85C15.5499 45.85 15.7499 45.8 15.9999 45.75C16.6999 45.5 17.1999 44.9 17.2999 44.15L18.2499 36.35C19.8999 37.2 21.5999 37.9 23.3499 38.45L23.5499 38.5C23.8999 38.6 24.2999 38.5 24.5499 38.25L38.2999 24.5C38.5499 24.25 38.6499 23.85 38.5499 23.5L38.4999 23.35C37.9499 21.6 37.2499 19.9 36.3999 18.25L44.1999 17.3C44.9499 17.2 45.5499 16.7 45.7999 16C45.9999 15.3 45.8499 14.55 45.2999 14.05ZM14.7499 42.15L9.74988 37.15L10.2999 30.75C11.9499 32.35 13.7499 33.7 15.5999 34.9L14.7499 42.15ZM23.3499 35.6C19.0999 34.15 15.0499 31.6 11.5999 28.2C4.49988 21.1 1.34988 11.3 3.59988 3.6C11.2999 1.35 21.0999 4.5 28.1999 11.6C31.6499 15.05 34.1999 19.1 35.5999 23.35L23.3499 35.6ZM34.9499 15.65C33.7499 13.8 32.3499 12 30.7999 10.35L37.1999 9.8L42.1999 14.8L34.9499 15.65Z" fill="#3182CE"/>
</svg>
